<svg width="500" height="400" viewBox="0 0 500 400" fill="none" xmlns="http://www.w3.org/2000/svg">
  <!-- About KOI Illustration -->
  <defs>
    <linearGradient id="aboutGrad1" x1="0%" y1="0%" x2="100%" y2="100%">
      <stop offset="0%" style="stop-color:#3b82f6;stop-opacity:1" />
      <stop offset="100%" style="stop-color:#1d4ed8;stop-opacity:1" />
    </linearGradient>
  </defs>
  
  <!-- Building -->
  <rect x="150" y="100" width="200" height="250" rx="10" fill="url(#aboutGrad1)" opacity="0.1"/>
  <rect x="150" y="100" width="200" height="30" rx="10" fill="url(#aboutGrad1)"/>
  
  <!-- Windows -->
  <rect x="170" y="150" width="40" height="40" rx="5" fill="url(#aboutGrad1)" opacity="0.3"/>
  <rect x="230" y="150" width="40" height="40" rx="5" fill="url(#aboutGrad1)" opacity="0.3"/>
  <rect x="290" y="150" width="40" height="40" rx="5" fill="url(#aboutGrad1)" opacity="0.3"/>
  
  <rect x="170" y="210" width="40" height="40" rx="5" fill="url(#aboutGrad1)" opacity="0.3"/>
  <rect x="230" y="210" width="40" height="40" rx="5" fill="url(#aboutGrad1)" opacity="0.3"/>
  <rect x="290" y="210" width="40" height="40" rx="5" fill="url(#aboutGrad1)" opacity="0.3"/>
  
  <rect x="170" y="270" width="40" height="40" rx="5" fill="url(#aboutGrad1)" opacity="0.3"/>
  <rect x="230" y="270" width="40" height="40" rx="5" fill="url(#aboutGrad1)" opacity="0.3"/>
  <rect x="290" y="270" width="40" height="40" rx="5" fill="url(#aboutGrad1)" opacity="0.3"/>
  
  <!-- Students -->
  <circle cx="80" cy="300" r="25" fill="#6366f1"/>
  <circle cx="80" cy="295" r="8" fill="white"/>
  <ellipse cx="80" cy="310" rx="12" ry="9" fill="white"/>
  
  <circle cx="420" cy="300" r="25" fill="#ec4899"/>
  <circle cx="420" cy="295" r="8" fill="white"/>
  <ellipse cx="420" cy="310" rx="12" ry="9" fill="white"/>
  
  <!-- Books/Education -->
  <rect x="200" y="50" width="100" height="15" rx="3" fill="#10b981" opacity="0.8"/>
  <rect x="205" y="35" width="90" height="15" rx="3" fill="#3b82f6" opacity="0.8"/>
  <rect x="210" y="20" width="80" height="15" rx="3" fill="#f59e0b" opacity="0.8"/>
</svg>
